<svg width="314" height="314" viewBox="0 0 314 314" fill="none" xmlns="http://www.w3.org/2000/svg">
<circle cx="157" cy="157" r="157" fill="#D9D9D9"/>
<path d="M124.917 206.833C122.396 206.833 120.238 205.936 118.443 204.141C116.648 202.345 115.75 200.187 115.75 197.667V133.5C115.75 130.979 116.648 128.821 118.443 127.026C120.238 125.231 122.396 124.333 124.917 124.333H129.5V115.167H138.667V124.333H175.333V115.167H184.5V124.333H189.083C191.604 124.333 193.762 125.231 195.557 127.026C197.352 128.821 198.25 130.979 198.25 133.5V197.667C198.25 200.187 197.352 202.345 195.557 204.141C193.762 205.936 191.604 206.833 189.083 206.833H124.917ZM124.917 197.667H189.083V151.833H124.917V197.667ZM124.917 142.667H189.083V133.5H124.917V142.667ZM157 170.167C155.701 170.167 154.613 169.727 153.734 168.849C152.856 167.97 152.417 166.882 152.417 165.583C152.417 164.285 152.856 163.196 153.734 162.318C154.613 161.439 155.701 161 157 161C158.299 161 159.387 161.439 160.266 162.318C161.144 163.196 161.583 164.285 161.583 165.583C161.583 166.882 161.144 167.97 160.266 168.849C159.387 169.727 158.299 170.167 157 170.167ZM138.667 170.167C137.368 170.167 136.28 169.727 135.401 168.849C134.523 167.97 134.083 166.882 134.083 165.583C134.083 164.285 134.523 163.196 135.401 162.318C136.28 161.439 137.368 161 138.667 161C139.965 161 141.054 161.439 141.932 162.318C142.811 163.196 143.25 164.285 143.25 165.583C143.25 166.882 142.811 167.97 141.932 168.849C141.054 169.727 139.965 170.167 138.667 170.167ZM175.333 170.167C174.035 170.167 172.946 169.727 172.068 168.849C171.189 167.97 170.75 166.882 170.75 165.583C170.75 164.285 171.189 163.196 172.068 162.318C172.946 161.439 174.035 161 175.333 161C176.632 161 177.72 161.439 178.599 162.318C179.477 163.196 179.917 164.285 179.917 165.583C179.917 166.882 179.477 167.97 178.599 168.849C177.72 169.727 176.632 170.167 175.333 170.167ZM157 188.5C155.701 188.5 154.613 188.061 153.734 187.182C152.856 186.304 152.417 185.215 152.417 183.917C152.417 182.618 152.856 181.529 153.734 180.651C154.613 179.773 155.701 179.333 157 179.333C158.299 179.333 159.387 179.773 160.266 180.651C161.144 181.529 161.583 182.618 161.583 183.917C161.583 185.215 161.144 186.304 160.266 187.182C159.387 188.061 158.299 188.5 157 188.5ZM138.667 188.5C137.368 188.5 136.28 188.061 135.401 187.182C134.523 186.304 134.083 185.215 134.083 183.917C134.083 182.618 134.523 181.529 135.401 180.651C136.28 179.773 137.368 179.333 138.667 179.333C139.965 179.333 141.054 179.773 141.932 180.651C142.811 181.529 143.25 182.618 143.25 183.917C143.25 185.215 142.811 186.304 141.932 187.182C141.054 188.061 139.965 188.5 138.667 188.5ZM175.333 188.5C174.035 188.5 172.946 188.061 172.068 187.182C171.189 186.304 170.75 185.215 170.75 183.917C170.75 182.618 171.189 181.529 172.068 180.651C172.946 179.773 174.035 179.333 175.333 179.333C176.632 179.333 177.72 179.773 178.599 180.651C179.477 181.529 179.917 182.618 179.917 183.917C179.917 185.215 179.477 186.304 178.599 187.182C177.72 188.061 176.632 188.5 175.333 188.5Z" fill="#4C5C71"/>
</svg>
