<svg width="314" height="314" viewBox="0 0 314 314" fill="none" xmlns="http://www.w3.org/2000/svg">
<circle cx="157" cy="157" r="157" fill="#D9D9D9"/>
<path d="M123.917 198.25C121.396 198.25 119.238 197.352 117.443 195.557C115.648 193.762 114.75 191.604 114.75 189.083V124.917C114.75 122.396 115.648 120.238 117.443 118.443C119.238 116.648 121.396 115.75 123.917 115.75H164.823L155.656 124.917H123.917V189.083H188.083V157.229L197.25 148.063V189.083C197.25 191.604 196.352 193.762 194.557 195.557C192.762 197.352 190.604 198.25 188.083 198.25H123.917ZM142.25 170.75V151.271L184.302 109.219C185.219 108.302 186.25 107.615 187.396 107.156C188.542 106.698 189.687 106.469 190.833 106.469C192.056 106.469 193.22 106.698 194.328 107.156C195.436 107.615 196.448 108.302 197.365 109.219L203.781 115.75C204.622 116.667 205.271 117.679 205.729 118.786C206.187 119.894 206.417 121.021 206.417 122.167C206.417 123.313 206.207 124.439 205.786 125.547C205.366 126.655 204.698 127.667 203.781 128.583L161.729 170.75H142.25ZM151.417 161.583H157.833L184.417 135L181.208 131.792L177.885 128.583L151.417 155.052V161.583Z" fill="#4C5C71"/>
</svg>
