<svg width="314" height="314" viewBox="0 0 314 314" fill="none" xmlns="http://www.w3.org/2000/svg">
<circle cx="157" cy="157" r="157" fill="#D9D9D9"/>
<path d="M157 179.333C162.729 179.333 167.599 177.328 171.609 173.318C175.62 169.307 177.625 164.438 177.625 158.708C177.625 152.979 175.62 148.109 171.609 144.099C167.599 140.089 162.729 138.083 157 138.083C151.271 138.083 146.401 140.089 142.391 144.099C138.38 148.109 136.375 152.979 136.375 158.708C136.375 164.438 138.38 169.307 142.391 173.318C146.401 177.328 151.271 179.333 157 179.333ZM157 171.083C153.563 171.083 150.641 169.88 148.234 167.474C145.828 165.068 144.625 162.146 144.625 158.708C144.625 155.271 145.828 152.349 148.234 149.943C150.641 147.536 153.563 146.333 157 146.333C160.438 146.333 163.359 147.536 165.766 149.943C168.172 152.349 169.375 155.271 169.375 158.708C169.375 162.146 168.172 165.068 165.766 167.474C163.359 169.88 160.438 171.083 157 171.083ZM157 193.083C145.847 193.083 135.688 189.971 126.521 183.745C117.354 177.519 110.708 169.174 106.583 158.708C110.708 148.243 117.354 139.898 126.521 133.672C135.688 127.446 145.847 124.333 157 124.333C168.153 124.333 178.313 127.446 187.479 133.672C196.646 139.898 203.292 148.243 207.417 158.708C203.292 169.174 196.646 177.519 187.479 183.745C178.313 189.971 168.153 193.083 157 193.083ZM157 183.917C165.632 183.917 173.557 181.644 180.776 177.099C187.995 172.554 193.514 166.424 197.333 158.708C193.514 150.993 187.995 144.863 180.776 140.318C173.557 135.773 165.632 133.5 157 133.5C148.368 133.5 140.443 135.773 133.224 140.318C126.005 144.863 120.486 150.993 116.667 158.708C120.486 166.424 126.005 172.554 133.224 177.099C140.443 181.644 148.368 183.917 157 183.917Z" fill="#4C5C71"/>
</svg>
